Coordinates
version=1
nRows=7
nColumns=33
inDegrees=yes

Units are S.I. units (second, meters, Newtons, ...)
Angles are in degrees.

endheader
time	ground_thorax_rot_x	ground_thorax_rot_y	ground_thorax_rot_z	ground_thorax_tx	ground_thorax_ty	ground_thorax_tz	clav_prot_r	clav_elev_r	scapula_abduction_r	scapula_elevation_r	scapula_upward_rot_r	scapula_winging_r	shoulder_elv_r	plane_of_elev_r	axial_rot_r	elbow_flexion_r	pro_sup_r	wrist_flex_r	wrist_dev_r	clav_prot_l	clav_elev_l	scapula_abduction_l	scapula_elevation_l	scapula_upward_rot_l	scapula_winging_l	shoulder_elv_l	plane_of_elev_l	axial_rot_l	elbow_flexion_l	pro_sup_l	wrist_flex_l	wrist_dev_l
      7.38000000	    -38.21505254	     -4.58580100	      2.52108921	     -6.79342532	    803.09584684	      2.07973281	     -5.80091321	    -45.00000000	     45.00000000	    -45.00000000	     26.66239531	  -2626.87611321	  -2461.08098403	     19.47635329	   -179.99999979	      3.51272232	    -75.35966985	     16.60563665	      9.90810288	     15.98506978	     40.08888399	    -45.00000000	    -39.05622081	    -25.40028844	   2956.58056561	  -5140.36081346	    135.59006408	   -179.99999979	    726.06649163	   -330.56144596	      9.83737113	    -18.68053522
      7.39000000	    -38.09096919	     -4.92714858	      2.68994270	     -7.19211487	    802.19716552	      2.21591627	     -6.03362230	    -45.00000000	     45.00000000	    -45.00000000	     26.04964842	  -2626.89711197	  -2461.07253582	     19.61984940	   -179.99999979	      3.68634456	    -74.87318038	     16.52779178	      9.77097845	     15.79614267	     39.31279243	    -45.00000000	    -38.66435627	    -25.64589020	   2957.01084049	  -5140.42574527	    135.46848007	   -179.99999979	    725.95349847	   -330.51005342	      9.91299688	    -18.83794333
      7.40000000	    -38.09702313	     -4.90185630	      2.52289114	     -7.92972197	    801.35504521	      2.36326657	     -5.59110837	    -45.00000000	     45.00000000	    -45.00000000	     25.78880372	  -2626.76954268	  -2461.02075061	     19.52855427	   -179.99999979	      3.57401170	    -74.16827820	     16.64092949	      9.99071680	     15.77378117	     39.77550192	    -45.00000000	    -38.58200904	    -25.72847155	   2956.81715117	  -5140.31684752	    135.65263346	   -179.99999979	    725.91605677	   -330.46412213	      9.87936253	    -18.66965725
      7.41000000	    -38.10770167	     -5.08242918	      2.54691820	     -8.99521600	    800.55631077	      2.53839185	     -5.83944748	    -45.00000000	     45.00000000	    -45.00000000	     25.60009358	  -2626.98508073	  -2461.02084591	     19.57864437	   -179.99999979	      3.65275517	    -73.39380364	     16.56313752	      9.73283860	     15.88444367	     39.34657940	    -45.00000000	    -38.47840019	    -25.83459282	   2957.14329947	  -5140.47894026	    135.47195991	   -179.99999979	    725.62350872	   -330.49732631	     10.05444127	    -18.86971660
      7.42000000	    -38.10538282	     -5.02987987	      2.33791555	    -10.38102599	    799.78617806	      2.74104880	     -5.52511298	    -45.00000000	     45.00000000	    -45.00000000	     25.40866580	  -2626.92237689	  -2460.92476250	     19.49738694	   -179.99999979	      3.49547485	    -72.58355376	     16.71958970	     10.03384502	     15.74512653	     39.67790416	    -45.00000000	    -38.59788572	    -26.16659915	   2956.82068691	  -5140.37936435	    135.71557519	   -179.99999979	    725.68641488	   -330.62140922	     10.06683751	    -18.71393859
      7.43000000	    -38.11364675	     -5.19703873	      2.48735644	    -12.07555722	    799.03576674	      2.96141422	     -5.68867208	    -45.00000000	     45.00000000	    -45.00000000	     25.32090652	  -2627.31821442	  -2460.74178796	     19.57971176	   -179.99999979	      3.72250673	    -71.90857855	     16.58845370	      9.66574816	     16.02460041	     39.40942543	    -45.00000000	    -38.41677716	    -26.32978110	   2957.41925149	  -5140.53899226	    135.40000533	   -179.99999979	    725.48090268	   -330.84765180	     10.24507899	    -19.02815375
      7.44000000	    -38.17853143	     -4.81757505	      1.86161932	    -14.06856010	    798.29756827	      3.17865571	     -5.46555044	    -45.00000000	     45.00000000	    -45.00000000	     25.09867459	  -2627.04963321	  -2460.71717927	     19.51250246	   -179.99999979	      3.40721012	    -71.33278602	     16.80907133	     10.17915624	     15.71409387	     39.71369688	    -45.00000000	    -38.64983585	    -26.06004542	   2956.77897319	  -5140.48739642	    136.06707992	   -179.99999979	    725.69170306	   -331.04133508	     10.33873117	    -18.87161343
